<svg version="1.1" xmlns="http://www.w3.org/2000/svg" xmlns:xlink="http://www.w3.org/1999/xlink" width="100" height="100" viewBox="0,0,256,256"><g fill="#600fc8" fill-rule="evenodd" stroke="none" stroke-width="1" stroke-linecap="butt" stroke-linejoin="miter" stroke-miterlimit="10" stroke-dasharray="" stroke-dashoffset="0" font-family="none" font-weight="none" font-size="none" text-anchor="none" style="mix-blend-mode: normal"><g transform="scale(2.56,2.56)"><path d="M52.0777,99.9576c26.6507,-1.0893 47.9223,-23.0394 47.9223,-49.9576c0,-27.6142 -22.3858,-50 -50,-50c-27.6142,0 -50,22.3858 -50,50c0,27.6142 22.3858,50 50,50c0.1229,0 0.2458,-0.0004 0.3685,-0.0013c0.1116,0.0009 0.2232,0.0013 0.335,0.0013c0.4318,0 0.8939,-0.0153 1.3742,-0.0424zM52.0777,99.9576c3.8278,-0.2161 8.8105,-1.1856 8.8105,-1.1856l-0.0531,-2.9905c0,0 0.0506,-5.8384 0.0506,-11.3878c0,-3.8723 -1.3276,-6.4062 -2.8187,-7.6873c9.2482,-1.0278 18.9539,-4.5373 18.9539,-20.4848c0,-4.5316 -1.6066,-8.2378 -4.2675,-11.1396c0.4267,-1.0502 1.8514,-5.2712 -0.4135,-10.9859c0,0 -3.4788,-1.1158 -11.4044,4.2559c-3.316,-0.9207 -6.8678,-1.3815 -10.3923,-1.3973c-3.5302,0.0158 -7.082,0.4766 -10.3931,1.3973c-7.9305,-5.3717 -11.416,-4.2559 -11.416,-4.2559c-2.2582,5.7155 -0.8335,9.9365 -0.4068,10.9859c-2.6551,2.9018 -4.2725,6.6072 -4.2725,11.1396c0,15.9076 9.6908,19.4694 18.9091,20.5172c-1.1856,1.0378 -2.2583,2.8669 -2.6353,5.5494c-2.3654,1.0627 -8.378,2.8943 -12.081,-3.4489c0,0 -2.1927,-3.9844 -6.3581,-4.2783c0,0 -4.0541,-0.0523 -0.2856,2.5232c0,0 2.7216,1.2769 4.6088,6.0724c0,0 2.4368,8.0734 13.9839,5.5652c0.0109,1.884 0.0266,3.5153 0.0387,4.7702c0.0102,1.0528 0.0178,1.8407 0.0178,2.2903l0.01,2.8885c3.2318,0.8399 6.6164,1.3002 10.1054,1.3279c0.5721,-0.0042 1.1419,-0.0179 1.7092,-0.0411z"></path></g></g></svg>