<svg version="1.1" xmlns="http://www.w3.org/2000/svg" xmlns:xlink="http://www.w3.org/1999/xlink" width="100" height="100" viewBox="0,0,256,256"><g fill="#600fc8" fill-rule="evenodd" stroke="none" stroke-width="1" stroke-linecap="butt" stroke-linejoin="miter" stroke-miterlimit="10" stroke-dasharray="" stroke-dashoffset="0" font-family="none" font-weight="none" font-size="none" text-anchor="none" style="mix-blend-mode: normal"><g transform="scale(2.56,2.56)"><path d="M50,100c27.6142,0 50,-22.3858 50,-50c0,-27.6142 -22.3858,-50 -50,-50c-27.6142,0 -50,22.3858 -50,50c0,27.6142 22.3858,50 50,50zM27.1967,32.1967c1.4065,-1.4065 3.3142,-2.1967 5.3033,-2.1967h35c1.9891,0 3.8968,0.7902 5.3033,2.1967c1.4065,1.4065 2.1967,3.3142 2.1967,5.3033v25c0,1.9891 -0.7902,3.8968 -2.1967,5.3033c-1.4065,1.4065 -3.3142,2.1967 -5.3033,2.1967h-35c-1.9891,0 -3.8968,-0.7902 -5.3033,-2.1967c-1.4065,-1.4065 -2.1967,-3.3142 -2.1967,-5.3033v-25c0,-1.9891 0.7902,-3.8968 2.1967,-5.3033zM51.775,49.7l14.7,-14.7h-32.95l14.7,14.7c0.2324,0.2343 0.5089,0.4203 0.8136,0.5472c0.3046,0.1269 0.6314,0.1923 0.9614,0.1923c0.33,0 0.6568,-0.0654 0.9614,-0.1923c0.3047,-0.1269 0.5812,-0.3129 0.8136,-0.5472zM69.2678,64.2678c0.4688,-0.4689 0.7322,-1.1048 0.7322,-1.7678v-23.975l-14.7,14.7c-1.4063,1.4045 -3.3125,2.1934 -5.3,2.1934c-1.9875,0 -3.8937,-0.7889 -5.3,-2.1934l-14.7,-14.7v23.975c0,0.663 0.2634,1.2989 0.7322,1.7678c0.4689,0.4688 1.1048,0.7322 1.7678,0.7322h35c0.663,0 1.2989,-0.2634 1.7678,-0.7322z"></path></g></g></svg>