<svg version="1.1" xmlns="http://www.w3.org/2000/svg" xmlns:xlink="http://www.w3.org/1999/xlink" width="100" height="100" viewBox="0,0,256,256"><g fill="#600fc8" fill-rule="evenodd" stroke="none" stroke-width="1" stroke-linecap="butt" stroke-linejoin="miter" stroke-miterlimit="10" stroke-dasharray="" stroke-dashoffset="0" font-family="none" font-weight="none" font-size="none" text-anchor="none" style="mix-blend-mode: normal"><g transform="scale(2.56,2.56)"><path d="M50,100c27.6142,0 50,-22.3858 50,-50c0,-27.6142 -22.3858,-50 -50,-50c-27.6142,0 -50,22.3858 -50,50c0,27.6142 22.3858,50 50,50zM71.9772,31.9444c0.3854,-4.3801 -4.2399,-2.5766 -4.2399,-2.5766c-3.4152,1.4138 -6.9374,2.8505 -10.4975,4.3027c-11.039,4.5028 -22.4436,9.1548 -32.1587,13.7331c-5.2678,1.9325 -2.1842,3.8649 -2.1842,3.8649l8.3514,2.5765c3.8544,1.1594 5.9102,-0.1288 5.9102,-0.1288l17.9875,-12.2386c6.4241,-4.3801 4.8824,-0.7729 3.3406,0.773l-13.4908,12.8826c-2.0557,1.8036 -1.0278,3.3496 -0.1284,4.1225c2.5489,2.249 8.8192,6.3638 11.5567,8.1602c0.7123,0.4674 1.1854,0.7779 1.2915,0.8577c0.6425,0.5154 4.1114,2.8342 6.4242,2.3189c2.3127,-0.5153 2.5696,-3.4783 2.5696,-3.4783l3.0836,-20.2259c0.4625,-3.5113 0.993,-6.8863 1.4167,-9.5819c0.4002,-2.5461 0.7051,-4.4859 0.7675,-5.362z"></path></g></g></svg>