<svg version="1.1" xmlns="http://www.w3.org/2000/svg" xmlns:xlink="http://www.w3.org/1999/xlink" width="100" height="100" viewBox="0,0,256,256"><g fill="#600fc8" fill-rule="evenodd" stroke="none" stroke-width="1" stroke-linecap="butt" stroke-linejoin="miter" stroke-miterlimit="10" stroke-dasharray="" stroke-dashoffset="0" font-family="none" font-weight="none" font-size="none" text-anchor="none" style="mix-blend-mode: normal"><g transform="scale(2.56,2.56)"><path d="M50,100c27.6142,0 50,-22.3858 50,-50c0,-27.6142 -22.3858,-50 -50,-50c-27.6142,0 -50,22.3858 -50,50c0,27.6142 22.3858,50 50,50zM25,34c0.406,19.4878 10.1498,31.1993 27.2328,31.1993h0.9685v-11.1493c6.2773,0.6246 11.0239,5.2155 12.9289,11.1493h8.8698c-2.436,-8.8695 -8.8385,-13.7727 -12.836,-15.6465c3.9975,-2.3111 9.619,-7.9326 10.9619,-15.5528h-8.0577c-1.7489,6.1836 -6.9325,11.8051 -11.8669,12.336v-12.336h-8.0578v21.6115c-4.9969,-1.2492 -11.3053,-7.3079 -11.5863,-21.6115z"></path></g></g></svg>